<svg xmlns="http://www.w3.org/2000/svg" xmlns:xlink="http://www.w3.org/1999/xlink" width="248" height="87" viewBox="0 0 248 87">
  <defs>
    <filter id="Rectangle_426" x="0" y="0" width="248" height="87" filterUnits="userSpaceOnUse">
      <feOffset dy="7" input="SourceAlpha"/>
      <feGaussianBlur stdDeviation="6.5" result="blur"/>
      <feFlood flood-opacity="0.161"/>
      <feComposite operator="in" in2="blur"/>
      <feComposite in="SourceGraphic"/>
    </filter>
  </defs>
  <g id="Group_1403" data-name="Group 1403" transform="translate(-865.5 -12470.5)">
    <g transform="matrix(1, 0, 0, 1, 865.5, 12470.5)" filter="url(#Rectangle_426)">
      <g id="Rectangle_426-2" data-name="Rectangle 426" transform="translate(19.5 12.5)" fill="#f5f5f5" stroke="#7e7e7e" stroke-width="1">
        <rect width="209" height="48" rx="24" stroke="none"/>
        <rect x="0.5" y="0.5" width="208" height="47" rx="23.5" fill="none"/>
      </g>
    </g>
    <g id="Group_1400" data-name="Group 1400" transform="translate(-1 3)">
      <g id="Group_1399" data-name="Group 1399" transform="translate(37.973 6.506)">
        <text id="EXCELLENT" transform="translate(928.027 12495.494)" font-size="15" font-family="Montserrat-SemiBold, Montserrat" font-weight="600"><tspan x="0" y="0">EXCELLENT</tspan></text>
        <text id="_55_Likes_" data-name="(55 Likes)" transform="translate(928.027 12512.494)" font-size="11" font-family="Montserrat-Medium, Montserrat" font-weight="500"><tspan x="0" y="0">(55 Likes)</tspan></text>
      </g>
      <path id="Icon_awesome-heart" data-name="Icon awesome-heart" d="M20.638,3.615a6.1,6.1,0,0,0-8.33.607l-.879.906-.879-.906a6.1,6.1,0,0,0-8.33-.607A6.41,6.41,0,0,0,1.776,12.9l8.638,8.92a1.4,1.4,0,0,0,2.022,0l8.638-8.92a6.406,6.406,0,0,0-.437-9.281Z" transform="translate(925.001 12492.752)" fill="red"/>
    </g>
  </g>
</svg>
